<svg width="52" height="52" viewBox="0 0 52 52" fill="none" xmlns="http://www.w3.org/2000/svg">
<path fill-rule="evenodd" clip-rule="evenodd" d="M26 1C12.1929 1 1 12.1929 1 26C1 39.8071 12.1929 51 26 51C39.8071 51 51 39.8071 51 26C51 12.1929 39.8071 1 26 1ZM0 26C0 11.6406 11.6406 0 26 0C40.3594 0 52 11.6406 52 26C52 40.3594 40.3594 52 26 52C11.6406 52 0 40.3594 0 26Z" fill="#B71C35"/>
<path fill-rule="evenodd" clip-rule="evenodd" d="M26.5 18C24.2909 18 22.5 19.7909 22.5 22C22.5 24.2091 24.2909 26 26.5 26C28.7091 26 30.5 24.2091 30.5 22C30.5 19.7909 28.7091 18 26.5 18ZM21.5 22C21.5 19.2386 23.7386 17 26.5 17C29.2614 17 31.5 19.2386 31.5 22C31.5 24.7614 29.2614 27 26.5 27C23.7386 27 21.5 24.7614 21.5 22Z" fill="#B71C35"/>
<path fill-rule="evenodd" clip-rule="evenodd" d="M20.5116 28.5028C21.3987 28.1627 22.4456 28.109 23.6276 28.4004C25.8494 28.9482 26.2026 28.9022 26.5314 28.8077C26.5768 28.7947 26.6301 28.7772 26.6919 28.757C26.8786 28.6958 27.143 28.6093 27.5018 28.542C27.9915 28.4501 28.686 28.3828 29.792 28.3859C31.031 28.3893 31.9407 28.8887 32.5801 29.639C33.2036 30.3706 33.5521 31.3177 33.7492 32.2146C33.9475 33.1172 34.0015 34.0113 34.007 34.674C34.0098 35.0068 34.0005 35.2847 33.9903 35.4805C33.9852 35.5784 33.9799 35.6561 33.9758 35.71C33.9737 35.7369 33.972 35.7579 33.9707 35.7726L33.9691 35.7899L33.9687 35.7949L33.9685 35.7964C33.9685 35.7966 33.9684 35.7974 33.4708 35.7489L33.9685 35.7964L33.9245 36.2489H17.887L17.7876 35.8784C17.254 33.8879 17.4601 31.7488 18.4386 30.2248C18.9319 29.4564 19.6242 28.843 20.5116 28.5028ZM32.9995 35.2489C33.0051 35.092 33.0089 34.9001 33.0071 34.6825C33.0018 34.0603 32.9508 33.2408 32.7725 32.4292C32.5929 31.6118 32.293 30.8439 31.819 30.2876C31.3607 29.7499 30.7238 29.3885 29.7892 29.3859C28.7217 29.3829 28.0942 29.4483 27.6861 29.5248C27.3966 29.5791 27.229 29.6342 27.0564 29.6909C26.9784 29.7165 26.8993 29.7424 26.8076 29.7688C26.182 29.9486 25.5674 29.9086 23.3882 29.3713C22.3697 29.1202 21.5351 29.1813 20.8696 29.4365C20.2043 29.6915 19.6725 30.1539 19.2801 30.765C18.542 31.9147 18.3072 33.5842 18.6642 35.2489H32.9995Z" fill="#B71C35"/>
</svg>
