<svg width="33" height="33" viewBox="0 0 33 33" fill="none" xmlns="http://www.w3.org/2000/svg">
<path fill-rule="evenodd" clip-rule="evenodd" d="M16.5 0C17.3284 0 18 0.671573 18 1.5V7.5C18 8.32843 17.3284 9 16.5 9C15.6716 9 15 8.32843 15 7.5V1.5C15 0.671573 15.6716 0 16.5 0Z" fill="#A34E53"/>
<path fill-rule="evenodd" clip-rule="evenodd" d="M16.5 24C17.3284 24 18 24.6716 18 25.5V31.5C18 32.3284 17.3284 33 16.5 33C15.6716 33 15 32.3284 15 31.5V25.5C15 24.6716 15.6716 24 16.5 24Z" fill="#A34E53"/>
<path fill-rule="evenodd" clip-rule="evenodd" d="M4.83433 4.83434C5.42012 4.24855 6.36986 4.24855 6.95565 4.83434L11.2006 9.07934C11.7864 9.66512 11.7864 10.6149 11.2006 11.2007C10.6149 11.7864 9.66512 11.7864 9.07933 11.2007L4.83433 6.95566C4.24854 6.36987 4.24854 5.42012 4.83433 4.83434Z" fill="#A34E53"/>
<path fill-rule="evenodd" clip-rule="evenodd" d="M21.7993 21.7993C22.3851 21.2136 23.3349 21.2136 23.9206 21.7993L28.1606 26.0393C28.7464 26.6251 28.7464 27.5749 28.1606 28.1607C27.5749 28.7464 26.6251 28.7464 26.0393 28.1607L21.7993 23.9207C21.2135 23.3349 21.2135 22.3851 21.7993 21.7993Z" fill="#A34E53"/>
<path fill-rule="evenodd" clip-rule="evenodd" d="M0 16.5C0 15.6716 0.671573 15 1.5 15H7.5C8.32843 15 9 15.6716 9 16.5C9 17.3284 8.32843 18 7.5 18H1.5C0.671573 18 0 17.3284 0 16.5Z" fill="#A34E53"/>
<path fill-rule="evenodd" clip-rule="evenodd" d="M24 16.5C24 15.6716 24.6716 15 25.5 15H31.5C32.3284 15 33 15.6716 33 16.5C33 17.3284 32.3284 18 31.5 18H25.5C24.6716 18 24 17.3284 24 16.5Z" fill="#A34E53"/>
<path fill-rule="evenodd" clip-rule="evenodd" d="M11.2013 21.8C11.7867 22.3861 11.7862 23.3358 11.2 23.9213L6.95502 28.1613C6.36889 28.7467 5.41915 28.7462 4.8337 28.16C4.24826 27.5739 4.24882 26.6242 4.83495 26.0387L9.07995 21.7987C9.66609 21.2133 10.6158 21.2138 11.2013 21.8Z" fill="#A34E53"/>
<path fill-rule="evenodd" clip-rule="evenodd" d="M28.16 4.83371C28.7462 5.41915 28.7467 6.3689 28.1613 6.95503L23.9213 11.2C23.3358 11.7862 22.3861 11.7867 21.8 11.2013C21.2138 10.6158 21.2133 9.66609 21.7987 9.07996L26.0387 4.83496C26.6241 4.24883 27.5739 4.24827 28.16 4.83371Z" fill="#A34E53"/>
</svg>
