<svg width="52" height="52" viewBox="0 0 52 52" fill="none" xmlns="http://www.w3.org/2000/svg">
<path fill-rule="evenodd" clip-rule="evenodd" d="M26 1C12.1929 1 1 12.1929 1 26C1 39.8071 12.1929 51 26 51C39.8071 51 51 39.8071 51 26C51 12.1929 39.8071 1 26 1ZM0 26C0 11.6406 11.6406 0 26 0C40.3594 0 52 11.6406 52 26C52 40.3594 40.3594 52 26 52C11.6406 52 0 40.3594 0 26Z" fill="#B31E38"/>
<path d="M25.548 27.978C27.481 27.978 29.048 26.411 29.048 24.478C29.048 22.545 27.481 20.978 25.548 20.978C23.615 20.978 22.048 22.545 22.048 24.478C22.048 26.411 23.615 27.978 25.548 27.978Z" fill="#A74F52"/>
<path fill-rule="evenodd" clip-rule="evenodd" d="M25.5838 16.5401C25.5694 16.5381 25.5515 16.5359 25.5305 16.5335C25.4737 16.5269 25.3934 16.5189 25.2929 16.5124C25.0921 16.4994 24.8094 16.4921 24.472 16.5136C23.7998 16.5563 22.8946 16.7141 21.9879 17.1827C21.0748 17.6545 20.1739 18.4351 19.5167 19.6967C18.8623 20.9528 18.4628 22.6596 18.5024 24.9685L18.5045 25.0948L18.5664 25.2049C20.7782 29.1413 22.1774 31.5473 23.0244 32.9707C23.448 33.6824 23.7338 34.149 23.9145 34.4387C24.0049 34.5835 24.069 34.6843 24.111 34.7495C24.1314 34.7813 24.1467 34.8047 24.1571 34.8206L24.1581 34.8225C24.1683 34.8421 24.1825 34.8689 24.2007 34.9011C24.2369 34.9653 24.2896 35.0531 24.3574 35.1507C24.4877 35.3384 24.6969 35.5963 24.979 35.7792C25.2743 35.9705 25.6813 36.0957 26.1361 35.9272C26.561 35.7698 26.9288 35.3901 27.2588 34.8194L27.2599 34.8175C29.8985 30.2092 31.2971 27.8094 32.0355 26.5625C32.4049 25.9389 32.6079 25.6056 32.7176 25.4296C32.7725 25.3415 32.8028 25.2949 32.8181 25.2719C32.8202 25.2688 32.8219 25.2662 32.8233 25.2641L32.9107 25.158L32.9242 25.0033L32.4261 24.9599C32.9242 25.0033 32.9242 25.0031 32.9243 25.0028L32.9243 25.002L32.9245 25L32.925 24.9938L32.9266 24.973C32.9278 24.9554 32.9295 24.9304 32.9312 24.8986C32.9348 24.835 32.9387 24.7438 32.9409 24.6291C32.9452 24.3997 32.9424 24.075 32.9144 23.6865C32.8585 22.9124 32.7015 21.8693 32.2909 20.818C31.8794 19.7648 31.2071 18.6883 30.1138 17.8761C29.0228 17.0657 27.5497 16.5463 25.5838 16.5401ZM31.9352 24.7955C31.9374 24.7469 31.9397 24.6847 31.9411 24.6102C31.9449 24.4064 31.9425 24.1124 31.917 23.7584C31.8657 23.0476 31.7222 22.1106 31.3594 21.1819C30.9974 20.2551 30.4232 19.3517 29.5174 18.6789C28.6159 18.0092 27.3484 17.54 25.5482 17.54H25.5083L25.4703 17.5339C25.4703 17.5339 25.47 17.5339 25.4699 17.5339C25.4698 17.5338 25.4697 17.5338 25.4695 17.5338C25.4694 17.5338 25.4694 17.5338 25.4692 17.5337L25.4602 17.5325C25.4511 17.5312 25.4361 17.5292 25.4155 17.5268C25.3742 17.522 25.3107 17.5157 25.2283 17.5103C25.0633 17.4997 24.8238 17.4933 24.5354 17.5116C23.9562 17.5484 23.1961 17.6839 22.447 18.071C21.7044 18.4548 20.9592 19.092 20.4035 20.1587C19.8558 21.2102 19.4794 22.7041 19.5005 24.8259C21.6736 28.6918 23.0501 31.0584 23.8838 32.4593C24.3045 33.1663 24.5867 33.6268 24.763 33.9095C24.8511 34.0508 24.9127 34.1475 24.9518 34.2082C24.9714 34.2386 24.9853 34.2599 24.9941 34.2733L25.0034 34.2876L25.0054 34.2905L25.0055 34.2907L25.0056 34.2908L25.0056 34.2909L25.0057 34.2909L25.0252 34.32L25.0398 34.3503C25.0397 34.3503 25.0399 34.3506 25.04 34.3507C25.04 34.3508 25.0401 34.3509 25.0402 34.3512C25.0403 34.3513 25.0402 34.3513 25.0403 34.3515C25.0404 34.3515 25.0404 34.3515 25.0404 34.3515L25.0405 34.3518L25.0457 34.3619C25.051 34.3722 25.0598 34.3887 25.0718 34.4099C25.0959 34.4528 25.1322 34.5132 25.1788 34.5803C25.2772 34.722 25.3984 34.8593 25.5229 34.94C25.6342 35.0121 25.71 35.0187 25.7887 34.9895C25.8972 34.9493 26.1134 34.8022 26.3927 34.3196C29.0317 29.7106 30.433 27.3061 31.1751 26.053C31.546 25.4266 31.7534 25.0859 31.869 24.9005C31.8953 24.8584 31.9171 24.8239 31.9352 24.7955Z" fill="#B31E38"/>
</svg>
