<svg width="50" height="50" viewBox="0 0 50 50" fill="none" xmlns="http://www.w3.org/2000/svg">
<g clip-path="url(#clip0)">
<path d="M24.999 0C20.0545 0 15.221 1.46622 11.1097 4.21326C6.99852 6.96029 3.79421 10.8648 1.90202 15.4329C0.00982499 20.0011 -0.485258 25.0277 0.479372 29.8773C1.444 34.7268 3.82502 39.1814 7.32133 42.6777C10.8176 46.174 15.2722 48.555 20.1217 49.5196C24.9713 50.4843 29.9979 49.9892 34.5661 48.097C39.1342 46.2048 43.0387 43.0005 45.7857 38.8893C48.5328 34.778 49.999 29.9445 49.999 25C49.999 18.3696 47.3651 12.0107 42.6767 7.32233C37.9883 2.63392 31.6294 0 24.999 0V0ZM39.516 27.822C39.5152 28.1427 39.3875 28.45 39.1607 28.6767C38.934 28.9035 38.6267 29.0312 38.306 29.032H29.032V38.306C29.0312 38.6267 28.9035 38.934 28.6767 39.1607C28.45 39.3875 28.1427 39.5152 27.822 39.516H22.177C21.8563 39.5152 21.549 39.3875 21.3223 39.1607C21.0955 38.934 20.9678 38.6267 20.967 38.306V29.032H11.693C11.3723 29.0312 11.065 28.9035 10.8383 28.6767C10.6115 28.45 10.4838 28.1427 10.483 27.822V22.177C10.4838 21.8563 10.6115 21.549 10.8383 21.3223C11.065 21.0955 11.3723 20.9678 11.693 20.967H20.967V11.693C20.9678 11.3723 21.0955 11.065 21.3223 10.8383C21.549 10.6115 21.8563 10.4838 22.177 10.483H27.822C28.1427 10.4838 28.45 10.6115 28.6767 10.8383C28.9035 11.065 29.0312 11.3723 29.032 11.693V20.967H38.306C38.6267 20.9678 38.934 21.0955 39.1607 21.3223C39.3875 21.549 39.5152 21.8563 39.516 22.177V27.822Z" fill="white"/>
</g>
<defs>
<clipPath id="clip0">
<rect width="50" height="50" fill="white"/>
</clipPath>
</defs>
</svg>
