<svg width="52" height="52" viewBox="0 0 52 52" fill="none" xmlns="http://www.w3.org/2000/svg">
<path fill-rule="evenodd" clip-rule="evenodd" d="M26 1C12.1929 1 1 12.1929 1 26C1 39.8071 12.1929 51 26 51C39.8071 51 51 39.8071 51 26C51 12.1929 39.8071 1 26 1ZM0 26C0 11.6406 11.6406 0 26 0C40.3594 0 52 11.6406 52 26C52 40.3594 40.3594 52 26 52C11.6406 52 0 40.3594 0 26Z" fill="#B31E38"/>
<path fill-rule="evenodd" clip-rule="evenodd" d="M15.4988 15.5H24.7562V27.6428H35.721V35.9429H15.4988V15.5ZM16.4988 16.5V34.9429H34.721V28.6428H23.7562V16.5H16.4988Z" fill="#B31E38"/>
<path fill-rule="evenodd" clip-rule="evenodd" d="M23.41 27.5339H19.41V26.5339H23.41V27.5339Z" fill="#B31E38"/>
<path fill-rule="evenodd" clip-rule="evenodd" d="M23.41 23.5339H19.41V22.5339H23.41V23.5339Z" fill="#B31E38"/>
<path fill-rule="evenodd" clip-rule="evenodd" d="M24.41 20.5339H19.41V19.5339H24.41V20.5339Z" fill="#B31E38"/>
<path fill-rule="evenodd" clip-rule="evenodd" d="M16.0807 34.6577L24.0807 27.6577L24.7392 28.4102L16.7392 35.4102L16.0807 34.6577Z" fill="#B31E38"/>
<path fill-rule="evenodd" clip-rule="evenodd" d="M24.91 32.0339V28.0339H25.91V32.0339H24.91Z" fill="#B31E38"/>
<path fill-rule="evenodd" clip-rule="evenodd" d="M27.91 32.0339V28.0339H28.91V32.0339H27.91Z" fill="#B31E38"/>
<path fill-rule="evenodd" clip-rule="evenodd" d="M30.91 32.0339V28.0339H31.91V32.0339H30.91Z" fill="#B31E38"/>
</svg>
