<svg width="30" height="30" viewBox="0 0 30 30" fill="none" xmlns="http://www.w3.org/2000/svg">
<path d="M21.7219 7.80937C19.8901 6.09422 17.513 5.15402 14.9911 5.15625C10.4525 5.16023 6.53437 8.27215 5.45256 12.5889C5.37381 12.9031 5.09385 13.125 4.76988 13.125H1.41229C0.972949 13.125 0.639199 12.7262 0.720469 12.2944C1.98826 5.56195 7.8992 0.46875 15 0.46875C18.8934 0.46875 22.4292 2.00016 25.038 4.49326L27.1307 2.40059C28.0165 1.51471 29.5312 2.14213 29.5312 3.39498V11.25C29.5312 12.0267 28.9017 12.6562 28.125 12.6562H20.27C19.0171 12.6562 18.3897 11.1415 19.2756 10.2556L21.7219 7.80937V7.80937ZM1.875 17.3438H9.73002C10.9829 17.3438 11.6103 18.8585 10.7244 19.7444L8.27812 22.1907C10.1099 23.9059 12.4872 24.8461 15.0091 24.8438C19.5454 24.8397 23.4651 21.7299 24.5474 17.4113C24.6262 17.097 24.9062 16.8751 25.2301 16.8751H28.5878C29.0271 16.8751 29.3609 17.274 29.2796 17.7057C28.0117 24.438 22.1008 29.5312 15 29.5312C11.1066 29.5312 7.57084 27.9998 4.96201 25.5067L2.86934 27.5994C1.98346 28.4853 0.46875 27.8579 0.46875 26.605V18.75C0.46875 17.9733 1.09834 17.3438 1.875 17.3438Z" fill="#A74F52"/>
</svg>
