<svg width="19" height="16" viewBox="0 0 19 16" fill="none" xmlns="http://www.w3.org/2000/svg">
<path d="M15.06 15.8C13.5 15.8 12.32 15.16 11.52 13.88C10.84 12.8 10.5 11.48 10.5 9.92C10.5 7.92 11 6.12 12 4.52C13.04 2.92 14.6 1.64 16.68 0.679996L17.22 1.76C15.98 2.28 14.9 3.1 13.98 4.22C13.1 5.34 12.66 6.48 12.66 7.64C12.66 8.12 12.72 8.54 12.84 8.9C13.48 8.38 14.22 8.12 15.06 8.12C16.14 8.12 17.04 8.48 17.76 9.2C18.52 9.88 18.9 10.8 18.9 11.96C18.9 13.04 18.52 13.96 17.76 14.72C17.04 15.44 16.14 15.8 15.06 15.8ZM4.85999 15.8C3.29999 15.8 2.11999 15.16 1.31999 13.88C0.639988 12.8 0.299988 11.48 0.299988 9.92C0.299988 7.92 0.799988 6.12 1.79999 4.52C2.83999 2.92 4.39999 1.64 6.47999 0.679996L7.01999 1.76C5.77999 2.28 4.69999 3.1 3.77999 4.22C2.89999 5.34 2.45999 6.48 2.45999 7.64C2.45999 8.12 2.51999 8.54 2.63999 8.9C3.27999 8.38 4.01999 8.12 4.85999 8.12C5.93999 8.12 6.83999 8.48 7.55999 9.2C8.31999 9.88 8.69999 10.8 8.69999 11.96C8.69999 13.04 8.31999 13.96 7.55999 14.72C6.83999 15.44 5.93999 15.8 4.85999 15.8Z" fill="#671C1C"/>
</svg>
