<svg width="52" height="52" viewBox="0 0 52 52" fill="none" xmlns="http://www.w3.org/2000/svg">
<path fill-rule="evenodd" clip-rule="evenodd" d="M26 1C12.1929 1 1 12.1929 1 26C1 39.8071 12.1929 51 26 51C39.8071 51 51 39.8071 51 26C51 12.1929 39.8071 1 26 1ZM0 26C0 11.6406 11.6406 0 26 0C40.3594 0 52 11.6406 52 26C52 40.3594 40.3594 52 26 52C11.6406 52 0 40.3594 0 26Z" fill="#B31E38"/>
<path fill-rule="evenodd" clip-rule="evenodd" d="M14 23.5C14.2761 23.5 14.5 23.7239 14.5 24V35C14.5 35.2761 14.2761 35.5 14 35.5C13.7239 35.5 13.5 35.2761 13.5 35V24C13.5 23.7239 13.7239 23.5 14 23.5Z" fill="#B31E38"/>
<path fill-rule="evenodd" clip-rule="evenodd" d="M20 19.5C20.2761 19.5 20.5 19.7239 20.5 20V36C20.5 36.2761 20.2761 36.5 20 36.5C19.7239 36.5 19.5 36.2761 19.5 36V20C19.5 19.7239 19.7239 19.5 20 19.5Z" fill="#B31E38"/>
<path fill-rule="evenodd" clip-rule="evenodd" d="M33 20.5C33.2761 20.5 33.5 20.7239 33.5 21V36C33.5 36.2761 33.2761 36.5 33 36.5C32.7239 36.5 32.5 36.2761 32.5 36V21C32.5 20.7239 32.7239 20.5 33 20.5Z" fill="#B31E38"/>
<path fill-rule="evenodd" clip-rule="evenodd" d="M38 23.5C38.2761 23.5 38.5 23.7239 38.5 24V36C38.5 36.2761 38.2761 36.5 38 36.5C37.7239 36.5 37.5 36.2761 37.5 36V24C37.5 23.7239 37.7239 23.5 38 23.5Z" fill="#B31E38"/>
<path fill-rule="evenodd" clip-rule="evenodd" d="M32.5 24C32.5 23.7239 32.7239 23.5 33 23.5H38C38.2761 23.5 38.5 23.7239 38.5 24C38.5 24.2761 38.2761 24.5 38 24.5H33C32.7239 24.5 32.5 24.2761 32.5 24Z" fill="#B31E38"/>
<path fill-rule="evenodd" clip-rule="evenodd" d="M26.6159 15.6799C26.7927 15.4678 27.108 15.4391 27.3201 15.6159L33.3201 20.6159C33.5322 20.7927 33.5609 21.108 33.3841 21.3201C33.2073 21.5322 32.8921 21.5609 32.6799 21.3841L26.6799 16.3841C26.4678 16.2073 26.4391 15.8921 26.6159 15.6799Z" fill="#B31E38"/>
<path fill-rule="evenodd" clip-rule="evenodd" d="M13.5 24C13.5 23.7239 13.7239 23.5 14 23.5H20C20.2761 23.5 20.5 23.7239 20.5 24C20.5 24.2761 20.2761 24.5 20 24.5H14C13.7239 24.5 13.5 24.2761 13.5 24Z" fill="#B31E38"/>
<path fill-rule="evenodd" clip-rule="evenodd" d="M27.4341 15.752C27.5712 15.9917 27.4879 16.2971 27.2481 16.4341L20.2481 20.4341C20.0083 20.5712 19.7029 20.4879 19.5659 20.2481C19.4289 20.0083 19.5122 19.7029 19.752 19.5659L26.752 15.5659C26.9917 15.4289 27.2971 15.5122 27.4341 15.752Z" fill="#B31E38"/>
<path d="M26 28.5C27.933 28.5 29.5 26.933 29.5 25C29.5 23.067 27.933 21.5 26 21.5C24.067 21.5 22.5 23.067 22.5 25C22.5 26.933 24.067 28.5 26 28.5Z" fill="#B31E38"/>
<path d="M28.5 29.5H23.5V35.5H28.5V29.5Z" fill="#B31E38"/>
</svg>
