<svg width="60" height="60" viewBox="0 0 60 60" fill="none" xmlns="http://www.w3.org/2000/svg">
<g clip-path="url(#clip0)">
<path d="M51.013 8.71898C45.9109 3.62512 39.1322 0.55795 31.9379 0.0880065C24.7436 -0.381937 17.6235 1.77735 11.9021 6.16419C6.18074 10.551 2.24758 16.8668 0.834295 23.9365C-0.57899 31.0063 0.623827 38.3487 4.219 44.598L0 60L15.763 55.862C20.1221 58.2383 25.0083 59.4817 29.973 59.478H29.986C37.8966 59.4773 45.4871 56.3541 51.1075 50.7873C56.7278 45.2205 59.9236 37.6602 60 29.75C59.9576 25.8264 59.142 21.9498 57.5999 18.3417C56.0578 14.7337 53.8195 11.4651 51.013 8.72298V8.71898ZM29.987 54.469C25.5584 54.4723 21.2106 53.2834 17.4 51.027L16.5 50.491L7.152 52.942L9.643 43.821L9.054 42.884C7.07761 39.6281 5.879 35.9602 5.55141 32.1655C5.22381 28.3709 5.77607 24.5518 7.16521 21.0054C8.55436 17.459 10.7429 14.2808 13.5607 11.7182C16.3785 9.15563 19.7494 7.27764 23.4114 6.23034C27.0733 5.18304 30.9276 4.99468 34.6742 5.67991C38.4208 6.36514 41.9588 7.90548 45.0131 10.1811C48.0673 12.4568 50.5553 15.4063 52.2837 18.8004C54.012 22.1944 54.934 25.9415 54.978 29.75C54.9072 36.331 52.2428 42.6184 47.5637 47.2466C42.8845 51.8748 36.5684 54.4702 29.987 54.469ZM43.54 35.96C42.803 35.585 39.147 33.79 38.464 33.549C37.781 33.308 37.285 33.174 36.79 33.924C36.295 34.674 34.875 36.335 34.433 36.844C33.991 37.353 33.562 37.407 32.826 37.032C28.46 34.849 25.594 33.132 22.714 28.193C21.951 26.881 23.477 26.974 24.897 24.135C24.9939 23.9296 25.0385 23.7034 25.0268 23.4766C25.0151 23.2497 24.9475 23.0293 24.83 22.835C24.643 22.46 23.156 18.804 22.54 17.317C21.94 15.871 21.321 16.071 20.866 16.045C20.437 16.018 19.942 16.018 19.446 16.018C19.07 16.0284 18.7002 16.1157 18.3593 16.2747C18.0184 16.4336 17.7137 16.6607 17.464 16.942C16.6245 17.7387 15.9599 18.7013 15.5123 19.7687C15.0647 20.836 14.8439 21.9848 14.864 23.142C14.864 26.798 17.529 30.334 17.891 30.83C18.253 31.326 23.128 38.83 30.591 42.053C35.305 44.089 37.154 44.263 39.511 43.915C40.944 43.701 43.904 42.12 44.52 40.379C45.005 39.2674 45.1542 38.0383 44.949 36.843C44.772 36.509 44.277 36.321 43.54 35.96Z" fill="black"/>
</g>
<defs>
<clipPath id="clip0">
<rect width="60" height="60" fill="white"/>
</clipPath>
</defs>
</svg>
