<svg xmlns="http://www.w3.org/2000/svg" width="60" height="60" viewBox="0 0 60 60"><path d="M51.013,10.969A29.742,29.742,0,0,0,4.219,46.848L0,62.25l15.763-4.138a29.642,29.642,0,0,0,14.21,3.616h.013A30.018,30.018,0,0,0,60,32a29.849,29.849,0,0,0-8.987-21.027ZM29.987,56.719A24.668,24.668,0,0,1,17.4,53.277l-.9-.536L7.152,55.192l2.491-9.121-.589-.937A24.76,24.76,0,1,1,54.978,32,24.988,24.988,0,0,1,29.987,56.719ZM43.54,38.21c-.737-.375-4.393-2.17-5.076-2.411s-1.179-.375-1.674.375-1.915,2.411-2.357,2.92-.871.563-1.607.188c-4.366-2.183-7.232-3.9-10.112-8.839-.763-1.312.763-1.219,2.183-4.058a1.377,1.377,0,0,0-.067-1.3c-.187-.375-1.674-4.031-2.29-5.518-.6-1.446-1.219-1.246-1.674-1.272-.429-.027-.924-.027-1.42-.027a2.752,2.752,0,0,0-1.982.924,8.348,8.348,0,0,0-2.6,6.2c0,3.656,2.665,7.192,3.027,7.688s5.237,8,12.7,11.223c4.714,2.036,6.563,2.21,8.92,1.862,1.433-.214,4.393-1.795,5.009-3.536a6.213,6.213,0,0,0,.429-3.536C44.772,38.759,44.277,38.571,43.54,38.21Z" transform="translate(0 -2.25)"/></svg>